<svg version="1.2" xmlns="http://www.w3.org/2000/svg" viewBox="0 0 18 18" width="18" height="18"><style>.a{fill:#bfbfbf}</style><path fill-rule="evenodd" class="a" d="m18 4.3v12.4q0 0.5-0.4 0.9-0.4 0.4-1 0.4h-15.2q-0.6 0-1-0.4-0.4-0.4-0.4-0.9v-12.4q0-0.6 0.4-0.9 0.4-0.4 1-0.4h1.4v-1.4q0-0.7 0.5-1.1 0.5-0.5 1.2-0.5h0.7q0.7 0 1.2 0.5 0.5 0.4 0.5 1.1v1.4h4.2v-1.4q0-0.7 0.5-1.1 0.5-0.5 1.2-0.5h0.7q0.7 0 1.2 0.5 0.5 0.4 0.5 1.1v1.4h1.4q0.6 0 1 0.4 0.4 0.3 0.4 0.9zm-5.5-2.7q0-0.1 0.1-0.2 0.1-0.1 0.2-0.1h0.7q0.2 0 0.2 0.1 0.1 0.1 0.1 0.2v2.9q0 0.1-0.1 0.2 0 0.1-0.2 0.1h-0.7q-0.1 0-0.2-0.1-0.1-0.1-0.1-0.2zm-8.3 0q0-0.1 0.1-0.2 0-0.1 0.2-0.1h0.7q0.1 0 0.2 0.1 0.1 0.1 0.1 0.2v2.9q0 0.1-0.1 0.2-0.1 0.1-0.2 0.1h-0.7q-0.2 0-0.2-0.1-0.1-0.1-0.1-0.2zm12.8 15.4h-16v-11h16z"/></svg>